<svg id="Layer_1" data-name="Layer 1" xmlns="http://www.w3.org/2000/svg" viewBox="0 0 546.09 546.09"><defs><style>.cls-1{fill:#04757f;}.cls-2{fill:#fff;}</style></defs><title>phone</title><circle class="cls-1" cx="297.64" cy="470.17" r="273.04" transform="translate(-269.88 151.05) rotate(-45)"/><path class="cls-2" d="M411.74,537.51c-12.87-12.84-33.52-14.29-47.67-3.66l-32.61,20.88c-.15,0-21.1,8.35-77.38-47.72-55.67-55.89-47.92-76.93-48-76.93h0L227,397.37a36.93,36.93,0,0,0-3.4-48l-31.09-31.09a36.74,36.74,0,0,0-55.38,3.94c-.1.15-.22.31-.32.48l-15.61,25.65c-2.6,3.54-61.87,88.43,69.55,220.81l1.25,1.22c68.9,68.42,124.93,85.16,163.26,85.16,35.32,0,55.62-14.21,57.12-15.32L438.87,624a36.72,36.72,0,0,0,3.94-55.37Z" transform="translate(-24.59 -197.13)"/><path class="cls-2" d="M365.21,468.41a6,6,0,0,0,8.52,0,55.68,55.68,0,0,0,0-78.62c-21-21-57.62-21-78.63,0a6,6,0,0,0,8.51,8.51c16.46-16.46,45.14-16.46,61.6,0a43.6,43.6,0,0,1,0,61.59A6,6,0,0,0,365.21,468.41Z" transform="translate(-24.59 -197.13)"/><path class="cls-2" d="M391.73,492.44a6,6,0,0,0,4.26-1.76A87.09,87.09,0,0,0,272.83,367.51a6,6,0,0,0,8.52,8.52A75,75,0,0,1,387.48,482.17a6,6,0,0,0,4.25,10.27Z" transform="translate(-24.59 -197.13)"/><path class="cls-2" d="M258.67,353.35a107.13,107.13,0,0,1,151.5,151.5,6,6,0,0,0,8.52,8.51A119.17,119.17,0,0,0,250.15,344.83a6,6,0,1,0,8.52,8.52Z" transform="translate(-24.59 -197.13)"/></svg>